<?xml version="1.0" ?>
<svg version="1.1" xmlns="http://www.w3.org/2000/svg" width="471px" height="500px" stroke="black" stroke-width="20" fill="transparent">
  <circle cx="130" cy="70" r="50" />
<path d="M116,156
		a20,20 0 0,1 28,0
		l 88,88
		a20,20 0 0,1 -28,28
		l -74,-74
		l -74,74
		a20,20 0 0,1 -28,-28
		Z" />
  <rect x="110" y="250" width="40" height="150" rx="20" ry="20" />
  <rect x="30" y="430" width="200" height="50" />
  <clipPath id="wing2Clip">
    <rect x="218" y="170" width="243" height="210" />
  </clipPath>
  <circle clip-path="url(#wing2Clip)" cx="251" cy="380" r="200" />
  <line x1="451" y1="380" x2="451" y2="461" />
  <clipPath id="wing2feather1Clip">
    <rect x="403" y="461" width="58" height="29" />
  </clipPath>
  <circle clip-path="url(#wing2feather1Clip)" cx="432" cy="461" r="19" />
  <line x1="413" y1="347" x2="413" y2="461" />
  <clipPath id="wing2feather2Clip">
    <rect x="365" y="423" width="58" height="29" />
  </clipPath>
  <circle clip-path="url(#wing2feather2Clip)" cx="394" cy="423" r="19" />
  <line x1="375" y1="328" x2="375" y2="423" />
  <clipPath id="wing2feather3Clip">
    <rect x="327" y="385" width="58" height="29" />
  </clipPath>
  <circle clip-path="url(#wing2feather3Clip)" cx="356" cy="385" r="19" />
  <line x1="337" y1="309" x2="337" y2="385" />
  <clipPath id="wing2feather4Clip">
    <rect x="289" y="347" width="58" height="29" />
  </clipPath>
  <circle clip-path="url(#wing2feather4Clip)" cx="318" cy="347" r="19" />
  <line x1="299" y1="290" x2="299" y2="347" />
  <clipPath id="wing2feather5Clip">
    <rect x="251" y="309" width="58" height="29" />
  </clipPath>
  <circle clip-path="url(#wing2feather5Clip)" cx="280" cy="309" r="19" />
  <line x1="261" y1="271" x2="261" y2="309" />
</svg>
