<?xml version="1.0" ?>
<svg version="1.1" xmlns="http://www.w3.org/2000/svg" width="500px" height="220px" stroke="black" stroke-width="10" fill="transparent">
  <clipPath id="wing1Clip">
    <rect x="5" y="5" width="105" height="105" stroke-width="1"/>
  </clipPath>
  <circle clip-path="url(#wing1Clip)" cx="110" cy="110" r="100" />
  <line x1="10" y1="110" x2="10" y2="201" />
  <clipPath id="wing1feather1Clip">
    <rect x="5" y="201" width="28" height="14" />
  </clipPath>
  <circle clip-path="url(#wing1feather1Clip)" cx="19" cy="201" r="9" />
  <line x1="28" y1="124" x2="28" y2="201" />
  <clipPath id="wing1feather2Clip">
    <rect x="23" y="183" width="28" height="14" />
  </clipPath>
  <circle clip-path="url(#wing1feather2Clip)" cx="37" cy="183" r="9" />
  <line x1="46" y1="116" x2="46" y2="183" />
  <clipPath id="wing1feather3Clip">
    <rect x="41" y="165" width="28" height="14" />
  </clipPath>
  <circle clip-path="url(#wing1feather3Clip)" cx="55" cy="165" r="9" />
  <line x1="64" y1="108" x2="64" y2="165" />
  <clipPath id="wing1feather4Clip">
    <rect x="59" y="147" width="28" height="14" />
  </clipPath>
  <circle clip-path="url(#wing1feather4Clip)" cx="73" cy="147" r="9" />
  <line x1="82" y1="100" x2="82" y2="147" />
  <clipPath id="wing1feather5Clip">
    <rect x="77" y="129" width="28" height="14" />
  </clipPath>
  <circle clip-path="url(#wing1feather5Clip)" cx="91" cy="129" r="9" />
  <line x1="100" y1="92" x2="100" y2="129" />
  <circle cx="160" cy="60" r="50" />
  <clipPath id="parenClip">
    <rect x="220" y="5" width="160" height="110" />
  </clipPath>
  <circle clip-path="url(#parenClip)" cx="300" cy="60" r="75" />
  <line x1="110" y1="116" x2="380" y2="116" stroke="red" stroke-width="1" />
  <clipPath id="nClip">
    <rect x="250" y="5" width="110" height="60" />
  </clipPath>
  <line x1="267" y1="27" x2="267" y2="115" />
  <circle clip-path="url(#nClip)" cx="300" cy="65" r="33" />
  <line x1="333" y1="65" x2="333" y2="115" />
  <clipPath id="wing2Clip">
    <rect x="380" y="10" width="110" height="205" />
  </clipPath>
  <ellipse clip-path="url(#wing2Clip)" cx="380" cy="10" rx="105" ry="200" />  <circle clip-path="url(#wing2Clip)" cx="380" cy="10" r="100" />
  <line x1="0" y1="220" x2="500" y2="220" stroke="blue" stroke-width="1" />
</svg>
