<?xml version="1.0" standalone="no" ?>
<svg version="1.1" xmlns="http://www.w3.org/2000/svg" width="234px" height="246px">
  <path d="M102,66
		h-84 a12,12 0 0,0 -12,12
		v24 a12,12 0 0,0 24,0 v-12
		h12
		v36 a12,12 0 0,0 24,0 v-36
		H78
		v60 a12,12 0 0,0 24,0
		Z"
		transform="rotate(45 102 66)" fill="#db6200" />
  <circle cx="117" cy="30" r="30" fill="#0aa00a" />
  <path d="M109,76
		a12,12 0 0,1 16,0
		l 52,52
		a12,12 0 0,1 -17,17
		l -44,-44
		l -44,44
		a12,12 0 0,1 -17,-17
		Z"
		fill="#00569a" />
  <rect x="105" y="120" width="24" height="90" rx="12" ry="12" fill="#00569a" />
  <rect x="57" y="222" width="120" height="24" fill="#b00b0b" />
  <path d="M132,66
		h84 a12,12 0 0,1 12,12
		v24 a12,12 0 0,1 -24,0 v-12
		h-12
		v36 a12,12 0 0,1 -24,0 v-36
		H156
		v60 a12,12 0 0,1 -24,0
		Z"
		transform="rotate(-45 132 66)" fill="#db6200" />
</svg>
