<?xml version="1.0" ?>
<svg version="1.1" xmlns="http://www.w3.org/2000/svg" width="760px" height="550px" stroke="black" stroke-width="20" fill="transparent">
  <clipPath id="wing1Clip">
    <rect x="10" y="220" width="243" height="210" />
  </clipPath>
  <circle clip-path="url(#wing1Clip)" cx="220" cy="430" r="200" />
  <line x1="20" y1="430" x2="20" y2="511" />
  <clipPath id="wing1feather1Clip">
    <rect x="10" y="511" width="58" height="29" />
  </clipPath>
  <circle clip-path="url(#wing1feather1Clip)" cx="39" cy="511" r="19" />
  <line x1="58" y1="397" x2="58" y2="511" />
  <clipPath id="wing1feather2Clip">
    <rect x="48" y="473" width="58" height="29" />
  </clipPath>
  <circle clip-path="url(#wing1feather2Clip)" cx="77" cy="473" r="19" />
  <line x1="96" y1="378" x2="96" y2="473" />
  <clipPath id="wing1feather3Clip">
    <rect x="86" y="435" width="58" height="29" />
  </clipPath>
  <circle clip-path="url(#wing1feather3Clip)" cx="115" cy="435" r="19" />
  <line x1="134" y1="359" x2="134" y2="435" />
  <clipPath id="wing1feather4Clip">
    <rect x="124" y="397" width="58" height="29" />
  </clipPath>
  <circle clip-path="url(#wing1feather4Clip)" cx="153" cy="397" r="19" />
  <line x1="172" y1="340" x2="172" y2="397" />
  <clipPath id="wing1feather5Clip">
    <rect x="162" y="359" width="58" height="29" />
  </clipPath>
  <circle clip-path="url(#wing1feather5Clip)" cx="191" cy="359" r="19" />
  <line x1="210" y1="321" x2="210" y2="359" />
  <circle cx="380" cy="120" r="100" />
  <clipPath id="parenClip">
    <rect x="220" y="230" width="320" height="220" />
  </clipPath>
  <circle clip-path="url(#parenClip)" cx="380" cy="340" r="150" />
  <clipPath id="nClip">
    <rect x="280" y="230" width="220" height="96" />
  </clipPath>
  <line x1="314" y1="250" x2="314" y2="430" />
  <circle clip-path="url(#nClip)" cx="380" cy="326" r="66" />
  <line x1="446" y1="326" x2="446" y2="430" />
  <clipPath id="wing2Clip">
    <rect x="507" y="220" width="243" height="210" />
  </clipPath>
  <circle clip-path="url(#wing2Clip)" cx="540" cy="430" r="200" />
  <line x1="740" y1="430" x2="740" y2="511" />
  <clipPath id="wing2feather1Clip">
    <rect x="692" y="511" width="58" height="29" />
  </clipPath>
  <circle clip-path="url(#wing2feather1Clip)" cx="721" cy="511" r="19" />
  <line x1="702" y1="397" x2="702" y2="511" />
  <clipPath id="wing2feather2Clip">
    <rect x="654" y="473" width="58" height="29" />
  </clipPath>
  <circle clip-path="url(#wing2feather2Clip)" cx="683" cy="473" r="19" />
  <line x1="664" y1="378" x2="664" y2="473" />
  <clipPath id="wing2feather3Clip">
    <rect x="616" y="435" width="58" height="29" />
  </clipPath>
  <circle clip-path="url(#wing2feather3Clip)" cx="645" cy="435" r="19" />
  <line x1="626" y1="359" x2="626" y2="435" />
  <clipPath id="wing2feather4Clip">
    <rect x="578" y="397" width="58" height="29" />
  </clipPath>
  <circle clip-path="url(#wing2feather4Clip)" cx="607" cy="397" r="19" />
  <line x1="588" y1="340" x2="588" y2="397" />
  <clipPath id="wing2feather5Clip">
    <rect x="540" y="359" width="58" height="29" />
  </clipPath>
  <circle clip-path="url(#wing2feather5Clip)" cx="569" cy="359" r="19" />
  <line x1="550" y1="321" x2="550" y2="359" />
</svg>
