<?xml version="1.0" standalone="no" ?>
<svg version="1.1" xmlns="http://www.w3.org/2000/svg" width="246px" height="246px">
  <path d="M102,66
		h-84 a12,12 0 0,0 -12,12
		v24 a12,12 0 0,0 24,0 v-12
		h12
		v36 a12,12 0 0,0 24,0 v-36
		H78
		v48 a12,12 0 0,0 24,0
		Z"
		transform="rotate(45 102 66)" fill="#00569a" />
  <circle cx="123" cy="30" r="30" fill="#00569a" />
  <path d="M57,84
		h54
		a12,12 0 0,1 12,12
		v54"
		transform="rotate(-45 123 84)" stroke="#00569a" stroke-width="24" stroke-linecap="round" fill="none" />
  <rect x="111" y="120" width="24" height="90" rx="12" ry="12" fill="#00569a" />
  <rect x="63" y="222" width="120" height="24" fill="#00569a" />
  <path d="M234,210
		h-12
		a24,24 0 0,1 -24,-24
		V108
		a36,36 0 0,0 -36,-36
		h-12
		h12
		a36,36 0 0,0 36,-36
		a24,24 0 0,1 24,-24
		h12"
		stroke="#00569a" stroke-width="24" stroke-linecap="round" fill="none" />
  <line x1="0" y1="246" x2="246" y2="246" stroke="red" stroke-width="1" />  <line x1="246" y1="0" x2="246" y2="246" stroke="red" stroke-width="1" /></svg>
