<?xml version="1.0" standalone="no" ?>
<svg version="1.1" xmlns="http://www.w3.org/2000/svg" width="222px" height="246px">
  <path d="M84,66
			L36,18
			Q0,54 48,102
			Z"
			stroke="#00569a" stroke-width="24" fill="none" />
  <circle cx="111" cy="30" r="30" fill="#00569a" />
  <path d="M103,76
		a12,12 0 0,1 16,0
		l 52,52
		a12,12 0 0,1 -17,17
		l -44,-44
		l -44,44
		a12,12 0 0,1 -17,-17
		Z"
		fill="#00569a" />
  <rect x="99" y="120" width="24" height="90" rx="12" ry="12" fill="#00569a" />
  <rect x="51" y="222" width="120" height="24" fill="#00569a" />
  <path d="M138,66
			L186,18
			Q222,54 174,102
			Z"
			stroke="#00569a" stroke-width="24" fill="none" />
</svg>
