<?xml version="1.0" standalone="no" ?>
<svg version="1.1" xmlns="http://www.w3.org/2000/svg" width="22px" height="29px">
  <path d="M8,7
			L4,3
			Q0,6 5,10
			Z"
			stroke="#db6200" stroke-width="4" fill="none" />
  <circle cx="11" cy="3" r="3" fill="#0aa00a" />
  <path d="M10,9
		a2,2 0 0,1 2,0
		l 4,4
		a2,2 0 0,1 -3,3
		l -3,-3
		l -3,3
		a2,2 0 0,1 -3,-3
		Z"
		fill="#00569a" />
  <rect x="9" y="16" width="4" height="9" rx="2" ry="2" fill="#00569a" />
  <rect x="5" y="27" width="12" height="2" fill="#b00b0b" />
  <path d="M14,7
			L18,3
			Q22,6 17,10
			Z"
			stroke="#db6200" stroke-width="4" fill="none" />
</svg>
