<?xml version="1.0" ?>
<svg version="1.1" xmlns="http://www.w3.org/2000/svg" width="690px" height="500px" stroke="black" stroke-width="20" fill="transparent">
  <clipPath id="wing1Clip">
    <rect x="10" y="170" width="243" height="210" />
  </clipPath>
  <circle clip-path="url(#wing1Clip)" cx="220" cy="380" r="200" />
  <line x1="20" y1="380" x2="20" y2="461" />
  <clipPath id="wing1feather1Clip">
    <rect x="10" y="461" width="58" height="29" />
  </clipPath>
  <circle clip-path="url(#wing1feather1Clip)" cx="39" cy="461" r="19" />
  <line x1="58" y1="347" x2="58" y2="461" />
  <clipPath id="wing1feather2Clip">
    <rect x="48" y="423" width="58" height="29" />
  </clipPath>
  <circle clip-path="url(#wing1feather2Clip)" cx="77" cy="423" r="19" />
  <line x1="96" y1="328" x2="96" y2="423" />
  <clipPath id="wing1feather3Clip">
    <rect x="86" y="385" width="58" height="29" />
  </clipPath>
  <circle clip-path="url(#wing1feather3Clip)" cx="115" cy="385" r="19" />
  <line x1="134" y1="309" x2="134" y2="385" />
  <clipPath id="wing1feather4Clip">
    <rect x="124" y="347" width="58" height="29" />
  </clipPath>
  <circle clip-path="url(#wing1feather4Clip)" cx="153" cy="347" r="19" />
  <line x1="172" y1="290" x2="172" y2="347" />
  <clipPath id="wing1feather5Clip">
    <rect x="162" y="309" width="58" height="29" />
  </clipPath>
  <circle clip-path="url(#wing1feather5Clip)" cx="191" cy="309" r="19" />
  <line x1="210" y1="271" x2="210" y2="309" />
  <circle cx="345" cy="70" r="50" />
<path d="M331,156
		a20,20 0 0,1 28,0
		l 88,88
		a20,20 0 0,1 -28,28
		l -74,-74
		l -74,74
		a20,20 0 0,1 -28,-28
		Z" />
  <rect x="325" y="250" width="40" height="150" rx="20" ry="20" />
  <rect x="245" y="430" width="200" height="50" />
  <clipPath id="wing2Clip">
    <rect x="437" y="170" width="243" height="210" />
  </clipPath>
  <circle clip-path="url(#wing2Clip)" cx="470" cy="380" r="200" />
  <line x1="670" y1="380" x2="670" y2="461" />
  <clipPath id="wing2feather1Clip">
    <rect x="622" y="461" width="58" height="29" />
  </clipPath>
  <circle clip-path="url(#wing2feather1Clip)" cx="651" cy="461" r="19" />
  <line x1="632" y1="347" x2="632" y2="461" />
  <clipPath id="wing2feather2Clip">
    <rect x="584" y="423" width="58" height="29" />
  </clipPath>
  <circle clip-path="url(#wing2feather2Clip)" cx="613" cy="423" r="19" />
  <line x1="594" y1="328" x2="594" y2="423" />
  <clipPath id="wing2feather3Clip">
    <rect x="546" y="385" width="58" height="29" />
  </clipPath>
  <circle clip-path="url(#wing2feather3Clip)" cx="575" cy="385" r="19" />
  <line x1="556" y1="309" x2="556" y2="385" />
  <clipPath id="wing2feather4Clip">
    <rect x="508" y="347" width="58" height="29" />
  </clipPath>
  <circle clip-path="url(#wing2feather4Clip)" cx="537" cy="347" r="19" />
  <line x1="518" y1="290" x2="518" y2="347" />
  <clipPath id="wing2feather5Clip">
    <rect x="470" y="309" width="58" height="29" />
  </clipPath>
  <circle clip-path="url(#wing2feather5Clip)" cx="499" cy="309" r="19" />
  <line x1="480" y1="271" x2="480" y2="309" />
</svg>
